<svg width="160.432129" height="24.000000" viewBox="0 0 160.432 24" fill="none" xmlns="http://www.w3.org/2000/svg" xmlns:xlink="http://www.w3.org/1999/xlink">
	<desc>
			Created with Pixso.
	</desc>
	<defs/>
	<ellipse id="Ellipse 54" cx="40.999512" cy="12.000000" rx="1.782579" ry="2.000000" fill="#112137" fill-opacity="1.000000"/>
	<ellipse id="Ellipse 55" cx="60.607910" cy="12.000000" rx="1.782579" ry="2.000000" fill="#112137" fill-opacity="1.000000"/>
	<ellipse id="Ellipse 59" cx="80.216309" cy="12.000000" rx="7.912895" ry="9.000000" stroke="#112137" stroke-opacity="1.000000" stroke-width="2.000000"/>
	<ellipse id="Ellipse 56" cx="80.216309" cy="12.000000" rx="1.782578" ry="2.000000" fill="#112137" fill-opacity="1.000000"/>
	<ellipse id="Ellipse 57" cx="99.824707" cy="12.000000" rx="1.782581" ry="2.000000" fill="#112137" fill-opacity="1.000000"/>
	<ellipse id="Ellipse 58" cx="119.433105" cy="12.000000" rx="1.782581" ry="2.000000" fill="#112137" fill-opacity="1.000000"/>
	<path id="Vector" d="M151.9 5.92L157.31 12L151.9 18.06" stroke="#112137" stroke-opacity="1.000000" stroke-width="1.500000" stroke-linejoin="round" stroke-linecap="round"/>
	<path id="Vector" d="M142.16 12L157.16 12" stroke="#112137" stroke-opacity="1.000000" stroke-width="1.500000" stroke-linejoin="round" stroke-linecap="round"/>
	<g opacity="0.000000">
		<path id="Vector" d="M139.04 24L160.43 24L160.43 0L139.04 0L139.04 24ZM159.43 1L159.43 23L140.04 23L140.04 1L159.43 1Z" fill="#112137" fill-opacity="1.000000" fill-rule="evenodd"/>
	</g>
	<path id="Vector" d="M8.52 18.07L3.11 12L8.52 5.93" stroke="#112137" stroke-opacity="1.000000" stroke-width="1.500000" stroke-linejoin="round" stroke-linecap="round"/>
	<path id="Vector" d="M18.27 12L3.27 12" stroke="#112137" stroke-opacity="1.000000" stroke-width="1.500000" stroke-linejoin="round" stroke-linecap="round"/>
	<g opacity="0.000000">
		<path id="Vector" d="M21.39 0L0 0L0 24L21.39 24L21.39 0ZM1 23L1 1L20.39 1L20.39 23L1 23Z" fill="#112137" fill-opacity="1.000000" fill-rule="evenodd"/>
	</g>
</svg>
